<svg width="70px" xmlns="http://www.w3.org/2000/svg" viewBox="0 0 48.4 39.6"><g id="window"><path fill="#489fd8" d="M.6 1.3h31.9v3.8H.6z"/><circle cx="3.2" cy="3.2" r=".8" fill="#fff"/><circle cx="5.7" cy="3.2" r=".8" fill="#fff"/><circle cx="8.2" cy="3.2" r=".8" fill="#fff"/><path d="M31.7 1.4c.3 0 .6.3.6.6v20.9c0 .3-.3.6-.6.6H2c-.3 0-.6-.3-.6-.6V2c0-.3.3-.6.6-.6h29.7m0-1.4H2C.9 0 0 .9 0 2v20.9c0 1.1.9 2 2 2h29.6c1.1 0 2-.9 2-2V2c.1-1.1-.8-2-1.9-2z" fill="#595a5a"/><path d="M3.2 18.1h5.1c.4 0 .6.3.6.6 0 .4-.3.6-.6.6H3.2c-.4 0-.6-.3-.6-.6-.1-.3.2-.6.6-.6zm8.3 3.8H3.2c-.4 0-.6-.3-.6-.6 0-.4.3-.6.6-.6h8.3c.4 0 .6.3.6.6 0 .4-.2.6-.6.6zm4.4 0H14c-.4 0-.6-.3-.6-.6 0-.4.3-.6.6-.6h1.9c.4 0 .6.3.6.6.1.4-.2.6-.6.6zm0-2.5h-5.1c-.4 0-.6-.3-.6-.6 0-.4.3-.6.6-.6h5.1c.4 0 .6.3.6.6.1.3-.2.6-.6.6z" fill="none"/><path d="M3.2 19.4h5.1c.4 0 .6-.3.6-.6 0-.4-.3-.6-.6-.6H3.2c-.4 0-.6.3-.6.6-.1.3.2.6.6.6zM15.9 18.1h-5.1c-.4 0-.6.3-.6.6 0 .4.3.6.6.6h5.1c.4 0 .6-.3.6-.6.1-.3-.2-.6-.6-.6zM11.5 20.7H3.2c-.4 0-.6.3-.6.6 0 .4.3.6.6.6h8.3c.4 0 .6-.3.6-.6 0-.4-.2-.6-.6-.6z" fill="#595a5a"/><path d="M15.9 20.7H14c-.4 0-.6.3-.6.6 0 .4.3.6.6.6h1.9c.4 0 .6-.3.6-.6.1-.4-.2-.6-.6-.6z" fill="#489fd8"/></g>
<g id="spanner"><path d="M24.2 21.2l-2-2v-2.8l2-2H27l2 2v2.8l-2 2h-2.8z" fill="#489fd8"/><path fill="#adacb2" d="M35.6 23.4l1.4-5.2.7.7-1.4 5.2z"/><path fill="#3a96c9" d="M24.2 21.2l-2-2v-1.8l2.2 2.1h2.4l2.2-2.1v1.8l-2 2z"/><path fill="#595a5a" d="M21.9 18.2v-2l2.2-2.1H26v1h-1.5L23 16.7v1.5zM25.2 21.5v-1.1h1.5l1.6-1.5v-1.5h1v1.9l-2.1 2.2z"/><path d="M27.9 17.4v1h-.4v-1h.4zm0-.9l-.3.3-.3-.3.3-.3.3.3zm-.5-.5l-.3.3-.4-.3.3-.3.4.3z" fill="#fff"/><path fill="#fff" d="M21.2 18.4l-1.1 4.5 6.7 6.6 5.6-1.6 7 7.1 1.5-2 1.8-1.7-7.1-6.7 2-5.3-6.9-7.1-4.7 1 5 4.9-.3 3-3 2.1-1.7-.1z"/><path fill="#adacb2" d="M39.3 35.2l-6.9-6.9-5.6 1.5-7-6.9.5-1.7 6.7 6.7 5.6-1.5 6.5 6.6 2.5-2.3.9 1z"/><path d="M39.2 35.6l-6.9-6.9-5.6 1.5-7.2-7.2 1.5-5.6 5.2 5.2h2.2l6.7-6.7 3 3-1.5 5.6 6.9 6.9-2 2.2-2.3 2zm1.3-3.1l1.1-1.2-6.4-6.4 1.5-5.6-1.7-1.7-6.2 6.2h-3.2l-4.1-4.1-.8 2.9 6.3 6.3 5.2-1.4 1.8-1.8.8.8-1.5 1.5 5.8 5.8 1.4-1.3z" fill="#595a5a"/><path fill="#595a5a" d="M30.4 18.7v-.4l-5.2-5.2 5.6-1.5 4 4-.8.8-3.5-3.5-3 .8 4.1 4.1v.9z"/><circle cx="25.6" cy="17.8" r="1.5" fill="#595a5a"/><circle cx="25.6" cy="17.8" r=".9" fill="#fff"/></g></svg>